<svg width="1220" height="800" viewBox="0 0 1220 800" fill="none" xmlns="http://www.w3.org/2000/svg">
<g clip-path="url(#clip0_7749_8408)">
<path d="M0 12C0 5.37257 5.37258 0 12 0H1208C1214.63 0 1220 5.37258 1220 12V788C1220 794.627 1214.63 800 1208 800H12C5.3726 800 0 794.627 0 788V12Z" fill="#C3C3AB"/>
<g filter="url(#filter0_f_7749_8408)">
<path d="M364 910.378C364 1016.63 276.472 1102.76 168.5 1102.76C60.5283 1102.76 -27 1016.63 -27 910.378C-27 804.131 60.5283 718 168.5 718C276.472 718 364 804.131 364 910.378Z" fill="#8D0F30"/>
</g>
<g filter="url(#filter1_f_7749_8408)">
<ellipse cx="1066.5" cy="800.378" rx="195.5" ry="192.378" fill="#696A2E"/>
</g>
<g filter="url(#filter2_f_7749_8408)">
<ellipse cx="107" cy="45.02" rx="124" ry="122.02" fill="#696A2E"/>
</g>
<g filter="url(#filter3_f_7749_8408)">
<ellipse cx="916" cy="19.02" rx="124" ry="122.02" fill="#8D0F30"/>
</g>
<g filter="url(#filter4_f_7749_8408)">
<path d="M726.478 681.03C582.068 664.008 355 706.418 355 706.418C355 706.418 578.812 772.157 726.478 779.371C840.415 784.938 1018 760.987 1018 760.987C1018 760.987 843.717 694.85 726.478 681.03Z" fill="#6EA6BA"/>
</g>
</g>
<defs>
<filter id="filter0_f_7749_8408" x="-438.52" y="306.48" width="1214.04" height="1207.8" filterUnits="userSpaceOnUse" color-interpolation-filters="sRGB">
<feFlood flood-opacity="0" result="BackgroundImageFix"/>
<feBlend mode="normal" in="SourceGraphic" in2="BackgroundImageFix" result="shape"/>
<feGaussianBlur stdDeviation="205.76" result="effect1_foregroundBlur_7749_8408"/>
</filter>
<filter id="filter1_f_7749_8408" x="459.48" y="196.48" width="1214.04" height="1207.8" filterUnits="userSpaceOnUse" color-interpolation-filters="sRGB">
<feFlood flood-opacity="0" result="BackgroundImageFix"/>
<feBlend mode="normal" in="SourceGraphic" in2="BackgroundImageFix" result="shape"/>
<feGaussianBlur stdDeviation="205.76" result="effect1_foregroundBlur_7749_8408"/>
</filter>
<filter id="filter2_f_7749_8408" x="-368.3" y="-428.3" width="950.6" height="946.64" filterUnits="userSpaceOnUse" color-interpolation-filters="sRGB">
<feFlood flood-opacity="0" result="BackgroundImageFix"/>
<feBlend mode="normal" in="SourceGraphic" in2="BackgroundImageFix" result="shape"/>
<feGaussianBlur stdDeviation="175.65" result="effect1_foregroundBlur_7749_8408"/>
</filter>
<filter id="filter3_f_7749_8408" x="380.48" y="-514.52" width="1071.04" height="1067.08" filterUnits="userSpaceOnUse" color-interpolation-filters="sRGB">
<feFlood flood-opacity="0" result="BackgroundImageFix"/>
<feBlend mode="normal" in="SourceGraphic" in2="BackgroundImageFix" result="shape"/>
<feGaussianBlur stdDeviation="205.76" result="effect1_foregroundBlur_7749_8408"/>
</filter>
<filter id="filter4_f_7749_8408" x="234.3" y="556.3" width="904.4" height="344.61" filterUnits="userSpaceOnUse" color-interpolation-filters="sRGB">
<feFlood flood-opacity="0" result="BackgroundImageFix"/>
<feBlend mode="normal" in="SourceGraphic" in2="BackgroundImageFix" result="shape"/>
<feGaussianBlur stdDeviation="60.35" result="effect1_foregroundBlur_7749_8408"/>
</filter>
<clipPath id="clip0_7749_8408">
<path d="M0 12C0 5.37257 5.37258 0 12 0H1208C1214.63 0 1220 5.37258 1220 12V788C1220 794.627 1214.63 800 1208 800H12C5.3726 800 0 794.627 0 788V12Z" fill="white"/>
</clipPath>
</defs>
</svg>
